<svg width="24" height="24" viewBox="0 0 24 24" fill="none" xmlns="http://www.w3.org/2000/svg">
<path d="M19.428 15.428C19.1488 15.1488 18.7932 14.9584 18.406 14.881L16.019 14.404C14.7106 14.1424 13.3524 14.3243 12.159 14.921L11.841 15.079C10.6476 15.6757 9.28935 15.8576 7.98099 15.596L6.04999 15.21C5.72719 15.1455 5.39346 15.1617 5.07842 15.2571C4.76338 15.3525 4.47675 15.5242 4.24399 15.757M7.99999 4H16L15 5V10.172C15.0001 10.7024 15.2109 11.211 15.586 11.586L20.586 16.586C21.846 17.846 20.953 20 19.171 20H4.82799C3.04599 20 2.15399 17.846 3.41399 16.586L8.41399 11.586C8.78908 11.211 8.99987 10.7024 8.99999 10.172V5L7.99999 4Z" stroke="black" stroke-width="2" stroke-linecap="round" stroke-linejoin="round"/>
</svg>
