<svg width="64" height="64" viewBox="0 0 64 64" fill="none" xmlns="http://www.w3.org/2000/svg">
<mask id="path-1-inside-1" fill="white">
<path d="M55.1111 28.4444C56.1659 28.4444 57.1971 28.1316 58.0741 27.5456C58.9512 26.9596 59.6348 26.1266 60.0384 25.1521C60.4421 24.1775 60.5477 23.1052 60.3419 22.0706C60.1362 21.0361 59.6282 20.0857 58.8823 19.3399C58.1364 18.594 57.1861 18.086 56.1516 17.8802C55.117 17.6745 54.0447 17.7801 53.0701 18.1837C52.0956 18.5874 51.2626 19.271 50.6766 20.1481C50.0906 21.0251 49.7778 22.0563 49.7778 23.1111C49.7778 24.5256 50.3397 25.8821 51.3399 26.8823C52.3401 27.8825 53.6966 28.4444 55.1111 28.4444ZM34.6078 23.3833C35.2032 23.2025 35.8221 23.1107 36.4444 23.1111C37.1653 23.1171 37.8796 23.2483 38.5555 23.4989L40.2611 18.0978C40.381 17.7207 40.4155 17.3216 40.362 16.9295C40.3086 16.5374 40.1686 16.1621 39.9521 15.8309C39.7356 15.4996 39.4481 15.2207 39.1105 15.0143C38.7728 14.808 38.3935 14.6793 38 14.6378C36.7189 14.4878 35.5322 15.3533 35.1433 16.5833L32.8211 23.9355L34.6078 23.3833ZM10.4055 46.4811C10.4944 46.46 10.5767 46.4211 10.6667 46.4022V43.5478C10.6696 39.9043 11.8205 36.3545 13.9559 33.4024C16.0914 30.4504 19.1027 28.2463 22.5622 27.1033L30.7511 24.5744L34.5467 12.5611C34.666 12.1844 34.7 11.7858 34.6464 11.3943C34.5928 11.0028 34.4529 10.628 34.2367 10.2972C34.0205 9.96642 33.7335 9.6878 33.3965 9.48151C33.0594 9.27522 32.6807 9.14642 32.2878 9.10443C31.0067 8.95554 29.8189 9.8211 29.43 11.0511L25.7133 22.8755C25.6422 23.1004 25.4846 23.2878 25.2753 23.3964C25.066 23.5051 24.8221 23.5262 24.5972 23.455C24.3724 23.3838 24.185 23.2262 24.0763 23.0169C23.9677 22.8076 23.9466 22.5637 24.0178 22.3389L28.8367 7.02888C28.956 6.65214 28.99 6.25359 28.9364 5.86206C28.8828 5.47054 28.7429 5.09582 28.5267 4.76501C28.3105 4.4342 28.0235 4.15558 27.6865 3.94929C27.3494 3.743 26.9707 3.6142 26.5778 3.57221C25.2967 3.42332 24.1111 4.28888 23.7211 5.51777L18.3955 22.3744C18.3245 22.5993 18.1671 22.7867 17.9579 22.8955C17.7487 23.0042 17.5048 23.0254 17.28 22.9544C17.0551 22.8834 16.8677 22.726 16.7589 22.5168C16.6502 22.3076 16.629 22.0637 16.7 21.8389L20.9844 8.28332C21.1037 7.90658 21.1378 7.50804 21.0842 7.11651C21.0306 6.72498 20.8907 6.35026 20.6745 6.01945C20.4583 5.68865 20.1713 5.41002 19.8342 5.20373C19.4972 4.99744 19.1185 4.86864 18.7255 4.82665C17.4444 4.66665 16.2578 5.53665 15.8689 6.76665L9.20221 27.8611L8.97332 22.3C8.97551 21.9497 8.90867 21.6024 8.77662 21.278C8.64456 20.9535 8.44987 20.6583 8.20368 20.4091C7.95748 20.1599 7.66461 19.9617 7.34178 19.8257C7.01895 19.6897 6.6725 19.6187 6.32221 19.6167C4.85221 19.6111 3.57554 20.7878 3.55554 22.2678V34.7933C3.59055 37.1672 4.23992 39.4916 5.44039 41.5399C6.64086 43.5882 8.35148 45.2905 10.4055 46.4811ZM57.6778 40.8889H40C39.7642 40.8889 39.5381 40.7952 39.3714 40.6285C39.2047 40.4618 39.1111 40.2357 39.1111 40C39.1111 39.7642 39.2047 39.5381 39.3714 39.3714C39.5381 39.2047 39.7642 39.1111 40 39.1111H54.2222C54.6174 39.1114 55.0077 39.0238 55.3649 38.8547C55.7222 38.6856 56.0373 38.4393 56.2876 38.1335C56.538 37.8276 56.7172 37.47 56.8123 37.0864C56.9074 36.7028 56.9161 36.3029 56.8378 35.9155C56.5944 34.6489 55.4122 33.7778 54.1222 33.7778H32L37.2322 31.8822C37.5669 31.7788 37.878 31.6104 38.1477 31.3867C38.4173 31.163 38.6403 30.8885 38.8038 30.5786C38.9673 30.2688 39.0682 29.9298 39.1008 29.5809C39.1333 29.2321 39.0968 28.8803 38.9933 28.5455C38.8899 28.2108 38.7215 27.8997 38.4978 27.6301C38.2742 27.3604 37.9996 27.1375 37.6897 26.9739C37.3799 26.8104 37.0409 26.7095 36.692 26.677C36.3432 26.6445 35.9914 26.681 35.6567 26.7844L23.6878 30.4789C20.934 31.3842 18.5364 33.1358 16.8367 35.4839C15.137 37.832 14.222 40.6568 14.2222 43.5555V46.4055C15.5043 46.6638 16.7133 47.2025 17.7627 47.9831C18.812 48.7636 19.6756 49.7667 20.2916 50.9204C20.9076 52.0741 21.2606 53.3497 21.3255 54.6559C21.3903 55.9622 21.1653 57.2665 20.6667 58.4755C22.7377 59.7539 25.1217 60.4352 27.5555 60.4444H50.6666C51.0619 60.4447 51.4522 60.3571 51.8094 60.1881C52.1666 60.019 52.4818 59.7726 52.7321 59.4668C52.9824 59.161 53.1616 58.8033 53.2568 58.4197C53.3519 58.0362 53.3606 57.6362 53.2822 57.2489C53.0389 55.9822 51.8567 55.1111 50.5667 55.1111H40C39.7642 55.1111 39.5381 55.0174 39.3714 54.8507C39.2047 54.684 39.1111 54.458 39.1111 54.2222C39.1111 53.9865 39.2047 53.7604 39.3714 53.5937C39.5381 53.427 39.7642 53.3333 40 53.3333H54.2222C54.6174 53.3336 55.0077 53.246 55.3649 53.0769C55.7222 52.9079 56.0373 52.6615 56.2876 52.3557C56.538 52.0499 56.7172 51.6922 56.8123 51.3086C56.9074 50.925 56.9161 50.5251 56.8378 50.1378C56.5944 48.8711 55.4122 48 54.1222 48H40C39.7642 48 39.5381 47.9063 39.3714 47.7396C39.2047 47.5729 39.1111 47.3468 39.1111 47.1111C39.1111 46.8753 39.2047 46.6493 39.3714 46.4826C39.5381 46.3159 39.7642 46.2222 40 46.2222H57.7778C58.173 46.2225 58.5633 46.1349 58.9205 45.9658C59.2777 45.7968 59.5929 45.5504 59.8432 45.2446C60.0935 44.9387 60.2727 44.5811 60.3679 44.1975C60.463 43.8139 60.4717 43.414 60.3933 43.0266C60.15 41.76 58.9678 40.8889 57.6778 40.8889ZM46.2222 10.6667C46.9254 10.6667 47.6129 10.4581 48.1976 10.0674C48.7823 9.67675 49.238 9.12144 49.5071 8.47175C49.7762 7.82206 49.8466 7.10715 49.7094 6.41744C49.5723 5.72773 49.2336 5.0942 48.7364 4.59694C48.2391 4.09969 47.6056 3.76105 46.9159 3.62386C46.2262 3.48667 45.5112 3.55708 44.8616 3.82619C44.2119 4.09531 43.6566 4.55103 43.2659 5.13574C42.8752 5.72045 42.6666 6.40788 42.6666 7.1111C42.6666 8.05409 43.0413 8.95846 43.708 9.62526C44.3748 10.2921 45.2792 10.6667 46.2222 10.6667ZM12.4444 49.7778C11.3896 49.7778 10.3585 50.0906 9.48139 50.6766C8.60433 51.2626 7.92074 52.0956 7.51707 53.0701C7.11341 54.0447 7.00779 55.117 7.21358 56.1516C7.41936 57.1861 7.92731 58.1365 8.67319 58.8823C9.41907 59.6282 10.3694 60.1362 11.4039 60.3419C12.4385 60.5477 13.5109 60.4421 14.4854 60.0385C15.4599 59.6348 16.2929 58.9512 16.8789 58.0741C17.465 57.1971 17.7778 56.1659 17.7778 55.1111C17.7778 53.6966 17.2159 52.3401 16.2157 51.3399C15.2155 50.3397 13.8589 49.7778 12.4444 49.7778Z"/>
</mask>
<path d="M55.1111 28.4444C56.1659 28.4444 57.1971 28.1316 58.0741 27.5456C58.9512 26.9596 59.6348 26.1266 60.0384 25.1521C60.4421 24.1775 60.5477 23.1052 60.3419 22.0706C60.1362 21.0361 59.6282 20.0857 58.8823 19.3399C58.1364 18.594 57.1861 18.086 56.1516 17.8802C55.117 17.6745 54.0447 17.7801 53.0701 18.1837C52.0956 18.5874 51.2626 19.271 50.6766 20.1481C50.0906 21.0251 49.7778 22.0563 49.7778 23.1111C49.7778 24.5256 50.3397 25.8821 51.3399 26.8823C52.3401 27.8825 53.6966 28.4444 55.1111 28.4444ZM34.6078 23.3833C35.2032 23.2025 35.8221 23.1107 36.4444 23.1111C37.1653 23.1171 37.8796 23.2483 38.5555 23.4989L40.2611 18.0978C40.381 17.7207 40.4155 17.3216 40.362 16.9295C40.3086 16.5374 40.1686 16.1621 39.9521 15.8309C39.7356 15.4996 39.4481 15.2207 39.1105 15.0143C38.7728 14.808 38.3935 14.6793 38 14.6378C36.7189 14.4878 35.5322 15.3533 35.1433 16.5833L32.8211 23.9355L34.6078 23.3833ZM10.4055 46.4811C10.4944 46.46 10.5767 46.4211 10.6667 46.4022V43.5478C10.6696 39.9043 11.8205 36.3545 13.9559 33.4024C16.0914 30.4504 19.1027 28.2463 22.5622 27.1033L30.7511 24.5744L34.5467 12.5611C34.666 12.1844 34.7 11.7858 34.6464 11.3943C34.5928 11.0028 34.4529 10.628 34.2367 10.2972C34.0205 9.96642 33.7335 9.6878 33.3965 9.48151C33.0594 9.27522 32.6807 9.14642 32.2878 9.10443C31.0067 8.95554 29.8189 9.8211 29.43 11.0511L25.7133 22.8755C25.6422 23.1004 25.4846 23.2878 25.2753 23.3964C25.066 23.5051 24.8221 23.5262 24.5972 23.455C24.3724 23.3838 24.185 23.2262 24.0763 23.0169C23.9677 22.8076 23.9466 22.5637 24.0178 22.3389L28.8367 7.02888C28.956 6.65214 28.99 6.25359 28.9364 5.86206C28.8828 5.47054 28.7429 5.09582 28.5267 4.76501C28.3105 4.4342 28.0235 4.15558 27.6865 3.94929C27.3494 3.743 26.9707 3.6142 26.5778 3.57221C25.2967 3.42332 24.1111 4.28888 23.7211 5.51777L18.3955 22.3744C18.3245 22.5993 18.1671 22.7867 17.9579 22.8955C17.7487 23.0042 17.5048 23.0254 17.28 22.9544C17.0551 22.8834 16.8677 22.726 16.7589 22.5168C16.6502 22.3076 16.629 22.0637 16.7 21.8389L20.9844 8.28332C21.1037 7.90658 21.1378 7.50804 21.0842 7.11651C21.0306 6.72498 20.8907 6.35026 20.6745 6.01945C20.4583 5.68865 20.1713 5.41002 19.8342 5.20373C19.4972 4.99744 19.1185 4.86864 18.7255 4.82665C17.4444 4.66665 16.2578 5.53665 15.8689 6.76665L9.20221 27.8611L8.97332 22.3C8.97551 21.9497 8.90867 21.6024 8.77662 21.278C8.64456 20.9535 8.44987 20.6583 8.20368 20.4091C7.95748 20.1599 7.66461 19.9617 7.34178 19.8257C7.01895 19.6897 6.6725 19.6187 6.32221 19.6167C4.85221 19.6111 3.57554 20.7878 3.55554 22.2678V34.7933C3.59055 37.1672 4.23992 39.4916 5.44039 41.5399C6.64086 43.5882 8.35148 45.2905 10.4055 46.4811ZM57.6778 40.8889H40C39.7642 40.8889 39.5381 40.7952 39.3714 40.6285C39.2047 40.4618 39.1111 40.2357 39.1111 40C39.1111 39.7642 39.2047 39.5381 39.3714 39.3714C39.5381 39.2047 39.7642 39.1111 40 39.1111H54.2222C54.6174 39.1114 55.0077 39.0238 55.3649 38.8547C55.7222 38.6856 56.0373 38.4393 56.2876 38.1335C56.538 37.8276 56.7172 37.47 56.8123 37.0864C56.9074 36.7028 56.9161 36.3029 56.8378 35.9155C56.5944 34.6489 55.4122 33.7778 54.1222 33.7778H32L37.2322 31.8822C37.5669 31.7788 37.878 31.6104 38.1477 31.3867C38.4173 31.163 38.6403 30.8885 38.8038 30.5786C38.9673 30.2688 39.0682 29.9298 39.1008 29.5809C39.1333 29.2321 39.0968 28.8803 38.9933 28.5455C38.8899 28.2108 38.7215 27.8997 38.4978 27.6301C38.2742 27.3604 37.9996 27.1375 37.6897 26.9739C37.3799 26.8104 37.0409 26.7095 36.692 26.677C36.3432 26.6445 35.9914 26.681 35.6567 26.7844L23.6878 30.4789C20.934 31.3842 18.5364 33.1358 16.8367 35.4839C15.137 37.832 14.222 40.6568 14.2222 43.5555V46.4055C15.5043 46.6638 16.7133 47.2025 17.7627 47.9831C18.812 48.7636 19.6756 49.7667 20.2916 50.9204C20.9076 52.0741 21.2606 53.3497 21.3255 54.6559C21.3903 55.9622 21.1653 57.2665 20.6667 58.4755C22.7377 59.7539 25.1217 60.4352 27.5555 60.4444H50.6666C51.0619 60.4447 51.4522 60.3571 51.8094 60.1881C52.1666 60.019 52.4818 59.7726 52.7321 59.4668C52.9824 59.161 53.1616 58.8033 53.2568 58.4197C53.3519 58.0362 53.3606 57.6362 53.2822 57.2489C53.0389 55.9822 51.8567 55.1111 50.5667 55.1111H40C39.7642 55.1111 39.5381 55.0174 39.3714 54.8507C39.2047 54.684 39.1111 54.458 39.1111 54.2222C39.1111 53.9865 39.2047 53.7604 39.3714 53.5937C39.5381 53.427 39.7642 53.3333 40 53.3333H54.2222C54.6174 53.3336 55.0077 53.246 55.3649 53.0769C55.7222 52.9079 56.0373 52.6615 56.2876 52.3557C56.538 52.0499 56.7172 51.6922 56.8123 51.3086C56.9074 50.925 56.9161 50.5251 56.8378 50.1378C56.5944 48.8711 55.4122 48 54.1222 48H40C39.7642 48 39.5381 47.9063 39.3714 47.7396C39.2047 47.5729 39.1111 47.3468 39.1111 47.1111C39.1111 46.8753 39.2047 46.6493 39.3714 46.4826C39.5381 46.3159 39.7642 46.2222 40 46.2222H57.7778C58.173 46.2225 58.5633 46.1349 58.9205 45.9658C59.2777 45.7968 59.5929 45.5504 59.8432 45.2446C60.0935 44.9387 60.2727 44.5811 60.3679 44.1975C60.463 43.8139 60.4717 43.414 60.3933 43.0266C60.15 41.76 58.9678 40.8889 57.6778 40.8889ZM46.2222 10.6667C46.9254 10.6667 47.6129 10.4581 48.1976 10.0674C48.7823 9.67675 49.238 9.12144 49.5071 8.47175C49.7762 7.82206 49.8466 7.10715 49.7094 6.41744C49.5723 5.72773 49.2336 5.0942 48.7364 4.59694C48.2391 4.09969 47.6056 3.76105 46.9159 3.62386C46.2262 3.48667 45.5112 3.55708 44.8616 3.82619C44.2119 4.09531 43.6566 4.55103 43.2659 5.13574C42.8752 5.72045 42.6666 6.40788 42.6666 7.1111C42.6666 8.05409 43.0413 8.95846 43.708 9.62526C44.3748 10.2921 45.2792 10.6667 46.2222 10.6667ZM12.4444 49.7778C11.3896 49.7778 10.3585 50.0906 9.48139 50.6766C8.60433 51.2626 7.92074 52.0956 7.51707 53.0701C7.11341 54.0447 7.00779 55.117 7.21358 56.1516C7.41936 57.1861 7.92731 58.1365 8.67319 58.8823C9.41907 59.6282 10.3694 60.1362 11.4039 60.3419C12.4385 60.5477 13.5109 60.4421 14.4854 60.0385C15.4599 59.6348 16.2929 58.9512 16.8789 58.0741C17.465 57.1971 17.7778 56.1659 17.7778 55.1111C17.7778 53.6966 17.2159 52.3401 16.2157 51.3399C15.2155 50.3397 13.8589 49.7778 12.4444 49.7778Z" stroke="#77D499" stroke-width="4" mask="url(#path-1-inside-1)"/>
</svg>
