<svg width="64" height="64" viewBox="0 0 64 64" fill="none" xmlns="http://www.w3.org/2000/svg">
<path d="M62.8214 35H30.2265L2.88512 15.1135C6.57419 6.75336 15.2965 1 25.0001 1H33.2635L62.8214 35ZM62.8214 35C62.7962 34.9241 62.7677 34.8492 62.7362 34.7754C61.7044 32.4587 60.5508 29.0576 59.3625 25.5544C59.0129 24.5239 58.6604 23.4846 58.307 22.4614C57.5224 20.1891 56.7298 17.9824 55.9452 16.0769C55.1546 14.1566 54.3971 12.6054 53.6951 11.6072L62.8214 35ZM9.00008 41.86V41.414L8.66825 41.116C3.75345 36.7023 0.741279 30.2544 1.01793 23.095C1.04605 22.4913 1.09926 21.8893 1.17738 21.2904L27.0001 40.0729V63H9.00008V41.86ZM40.0001 29L40.0023 29C41.3269 28.9971 42.5964 28.4696 43.5331 27.533C44.4697 26.5963 44.9972 25.3268 45.0001 24.0022V24C45.0001 23.0111 44.7068 22.0444 44.1574 21.2221C43.608 20.3999 42.8271 19.759 41.9135 19.3806C40.9999 19.0022 39.9945 18.9031 39.0246 19.0961C38.0547 19.289 37.1638 19.7652 36.4646 20.4645C35.7653 21.1637 35.2891 22.0546 35.0962 23.0245C34.9032 23.9945 35.0023 24.9998 35.3807 25.9134C35.7591 26.827 36.4 27.6079 37.2222 28.1573C38.0445 28.7068 39.0112 29 40.0001 29ZM44.7719 3.81339C48.3275 5.65925 51.3877 8.3321 53.695 11.6071L33.2638 1C37.2698 1.00275 41.2165 1.96761 44.7719 3.81339ZM61.2793 45H42.0001C41.2044 45 40.4414 45.3161 39.8788 45.8787C39.3162 46.4413 39.0001 47.2044 39.0001 48C39.0001 48.7956 39.3162 49.5587 39.8788 50.1213C40.4414 50.6839 41.2044 51 42.0001 51H59.28L58.6131 53H42.0001C41.2044 53 40.4414 53.3161 39.8788 53.8787C39.3162 54.4413 39.0001 55.2044 39.0001 56C39.0001 56.7956 39.3162 57.5587 39.8788 58.1213C40.4414 58.6839 41.2044 59 42.0001 59H56.559C56.0549 60.0626 55.289 60.9855 54.3276 61.6786C53.1358 62.5376 51.7041 62.9999 50.2351 63H33.0001V41H62.6127L61.2793 45Z" stroke="#77D499" stroke-width="2"/>
</svg>
