<svg width="24" height="24" viewBox="0 0 24 24" fill="none" xmlns="http://www.w3.org/2000/svg">
<path d="M4.87099 4C3.6364 6.48586 2.99591 9.22445 2.99999 12C2.99999 14.874 3.67299 17.59 4.87099 20M19.001 20C20.2352 17.5141 20.8754 14.7755 20.871 12C20.871 9.126 20.198 6.41 19.001 4M8.99999 9H10.246C10.4632 9.0001 10.6744 9.0709 10.8478 9.2017C11.0212 9.3325 11.1473 9.51619 11.207 9.725L12.793 15.275C12.8527 15.4838 12.9788 15.6675 13.1522 15.7983C13.3256 15.9291 13.5368 15.9999 13.754 16H15M16 9H15.92C15.6314 8.99988 15.3463 9.0622 15.0841 9.18268C14.8219 9.30317 14.5888 9.47896 14.401 9.698L9.59999 15.302C9.41203 15.5212 9.17884 15.697 8.91646 15.8175C8.65408 15.938 8.36872 16.0003 8.07999 16H7.99999" stroke="black" stroke-width="2" stroke-linecap="round" stroke-linejoin="round"/>
</svg>
