<svg width="64" height="46" viewBox="0 0 64 46" fill="none" xmlns="http://www.w3.org/2000/svg">
<path d="M50.475 1.59998H50.4749C44.4628 1.59949 38.4274 3.12139 32.2454 4.68603L32.1808 4.70237C26.0669 6.2498 19.8077 7.83398 13.525 7.83398C10.3499 7.83398 7.15909 7.43082 3.95782 6.41523L50.475 1.59998ZM50.475 1.59998C54.2449 1.59998 57.992 2.20063 61.7292 3.76814C62.4822 4.08401 63.0003 4.89091 63.001 5.79377V37.518C63.001 38.7711 61.9893 39.699 60.776 39.699C60.5386 39.699 60.2926 39.6628 60.0434 39.5838M50.475 1.59998L2.27014 42.2305M2.27014 42.2305L2.27099 42.2309C6.00806 43.7993 9.75511 44.4 13.525 44.4C19.5371 44.4 25.5728 42.8778 31.7551 41.313L31.8182 41.2971C37.9329 39.7494 44.1927 38.165 50.476 38.165C53.6511 38.165 56.8421 38.5682 60.0434 39.5838M2.27014 42.2305C1.51796 41.9157 1 41.1085 1 40.207V8.48098C1 7.2278 2.01171 6.29998 3.225 6.29998C3.46236 6.29998 3.70837 6.33618 3.9576 6.41516L2.27014 42.2305ZM60.0434 39.5838L59.741 40.537L60.0432 39.5837C60.0433 39.5838 60.0433 39.5838 60.0434 39.5838ZM5.04299 9.65195L3.8 9.34058V10.622V16.669V17.669H4.8C8.38925 17.669 11.3735 15.1051 12.0526 11.7112L12.2771 10.5889L11.1348 10.517C9.009 10.3831 6.97471 10.1358 5.04299 9.65195ZM3.8 39.122V39.8226L4.45852 40.0619C6.55938 40.8251 8.75372 41.293 11.0909 41.4808L12.2208 41.5715L12.17 40.4392C11.9936 36.504 8.78397 33.344 4.8 33.344H3.8V34.344V39.122ZM58.9569 36.348L60.2 36.6595V35.378V29.606V28.4712L59.0742 28.6139C55.9741 29.0069 53.4717 31.2962 52.7924 34.3144L52.5407 35.4328L53.6829 35.5303C55.5143 35.6868 57.2757 35.9267 58.9569 36.348ZM59.0744 12.7591L60.2 12.9015V11.767V6.87798V6.17704L59.5411 5.93795C57.6846 5.2643 55.7509 4.84258 53.7294 4.61809L52.5851 4.49101L52.6194 5.64179C52.7293 9.32395 55.5019 12.3069 59.0744 12.7591ZM23 23C23 28.6747 26.8656 33.6 32 33.6C37.1321 33.6 41 28.677 41 23C41 17.3241 37.1332 12.4 32 12.4C26.8668 12.4 23 17.3241 23 23Z" stroke="#77D499" stroke-width="2"/>
</svg>
