<svg width="56" height="64" viewBox="0 0 56 64" fill="none" xmlns="http://www.w3.org/2000/svg">
<path d="M35.1375 2.19159e-05H20.85C20.293 -0.0021194 19.7466 0.152694 19.2735 0.446726C18.8004 0.740758 18.4197 1.16212 18.175 1.66252L35.1375 2.19159e-05ZM35.1375 2.19159e-05C35.6958 -0.000378496 36.2431 0.155015 36.7179 0.44872C37.1927 0.742425 37.5761 1.16279 37.825 1.66252M35.1375 2.19159e-05L37.825 1.66252M37.825 1.66252L39 4.00002L37.825 1.66252ZM38.1065 4.44915L38.3834 5.00002H39H54C54.2652 5.00002 54.5196 5.10538 54.7071 5.29291C54.8946 5.48045 55 5.7348 55 6.00002V10C55 10.2652 54.8946 10.5196 54.7071 10.7071C54.5196 10.8947 54.2652 11 54 11H2C1.73478 11 1.48043 10.8947 1.29289 10.7071C1.10536 10.5196 1 10.2652 1 10V6.00002C1 5.73481 1.10536 5.48045 1.29289 5.29291C1.48043 5.10538 1.73478 5.00002 2 5.00002H17H17.6166L17.8935 4.44915L19.0685 2.11165L19.0685 2.11167L19.0733 2.10181C19.2355 1.77017 19.4878 1.49092 19.8014 1.29606C20.1149 1.1012 20.477 0.998595 20.8462 1.00002H20.85L35.1375 1.00002L35.1382 1.00002C35.5104 0.999755 35.8753 1.10335 36.1918 1.29915C36.5083 1.49496 36.764 1.7752 36.9299 2.10836L36.9315 2.11165L38.1065 4.44915ZM6.46447 61.5356C5.52678 60.5979 5 59.3261 5 58V17H51V58C51 59.3261 50.4732 60.5979 49.5355 61.5356C48.5979 62.4732 47.3261 63 46 63H10C8.67392 63 7.40215 62.4732 6.46447 61.5356ZM37.8787 23.8787C37.3161 24.4413 37 25.2044 37 26V54C37 54.7957 37.3161 55.5587 37.8787 56.1213C38.4413 56.684 39.2044 57 40 57C40.7956 57 41.5587 56.684 42.1213 56.1213C42.6839 55.5587 43 54.7957 43 54V26C43 25.2044 42.6839 24.4413 42.1213 23.8787C41.5587 23.3161 40.7957 23 40 23C39.2043 23 38.4413 23.3161 37.8787 23.8787ZM25.8787 23.8787C25.3161 24.4413 25 25.2044 25 26V54C25 54.7957 25.3161 55.5587 25.8787 56.1213C26.4413 56.684 27.2044 57 28 57C28.7956 57 29.5587 56.684 30.1213 56.1213C30.6839 55.5587 31 54.7957 31 54V26C31 25.2044 30.6839 24.4413 30.1213 23.8787C29.5587 23.3161 28.7957 23 28 23C27.2043 23 26.4413 23.3161 25.8787 23.8787ZM13.8787 23.8787C13.3161 24.4413 13 25.2044 13 26V54C13 54.7957 13.3161 55.5587 13.8787 56.1213C14.4413 56.684 15.2044 57 16 57C16.7956 57 17.5587 56.684 18.1213 56.1213C18.6839 55.5587 19 54.7957 19 54V26C19 25.2044 18.6839 24.4413 18.1213 23.8787C17.5587 23.3161 16.7957 23 16 23C15.2044 23 14.4413 23.3161 13.8787 23.8787Z" stroke="#77D499" stroke-width="2"/>
</svg>
