<svg width="64" height="58" viewBox="0 0 64 58" fill="none" xmlns="http://www.w3.org/2000/svg">
<path d="M11.4958 30.0594L11.4915 30.0636C10.913 30.6162 10.4529 31.2807 10.1392 32.0166C9.82586 32.7518 9.66509 33.5429 9.66666 34.3421C9.66487 35.1414 9.82556 35.9326 10.139 36.6679C10.4527 37.404 10.9129 38.0685 11.4917 38.621L11.4958 38.625L16.7778 43.6101V53.8888C16.7778 54.5666 16.5085 55.2166 16.0293 55.6959C15.55 56.1751 14.9 56.4444 14.2222 56.4444H7.11111C6.43333 56.4444 5.78332 56.1751 5.30406 55.6959C4.8248 55.2166 4.55556 54.5666 4.55556 53.8888V39.6666V38.6666H3.55556C2.87778 38.6666 2.22776 38.3974 1.74851 37.9181C1.26925 37.4389 1 36.7889 1 36.1111V25.4444C1 23.8237 1.64385 22.2693 2.7899 21.1232C3.93596 19.9772 5.49034 19.3333 7.11111 19.3333H14.2213C15.4441 19.3345 16.6384 19.7031 17.6492 20.3913C18.4365 20.9274 19.0842 21.6381 19.5444 22.4636C19.5336 22.4733 19.5228 22.4832 19.512 22.4934L19.5103 22.495L11.4958 30.0594L11.4958 30.0594ZM14.9879 3.34548L15.695 2.63837L14.9879 3.34548C15.8425 4.20013 16.4246 5.28902 16.6604 6.47446C16.8962 7.6599 16.7751 8.88864 16.3126 10.0053C15.8501 11.122 15.0668 12.0764 14.0618 12.7479C13.0569 13.4194 11.8753 13.7778 10.6667 13.7778C9.0459 13.7778 7.49151 13.1339 6.34546 11.9879C5.1994 10.8418 4.55556 9.28744 4.55556 7.66668C4.55556 6.45802 4.91397 5.2765 5.58546 4.27153C6.25696 3.26657 7.21139 2.48329 8.32805 2.02076C9.44471 1.55822 10.6734 1.4372 11.8589 1.673C13.0443 1.9088 14.1332 2.49082 14.9879 3.34548ZM52.5105 30.0643L52.5105 30.0643L52.5041 30.0583L44.4965 22.5014C44.4829 22.4882 44.4692 22.4754 44.4555 22.4629C44.9158 21.6375 45.5636 20.9269 46.3509 20.3909C47.3617 19.7029 48.5559 19.3344 49.7787 19.3333H56.8889C58.5097 19.3333 60.064 19.9772 61.2101 21.1232C62.3562 22.2693 63 23.8237 63 25.4444V36.1111C63 36.7889 62.7308 37.4389 62.2515 37.9181C61.7722 38.3974 61.1222 38.6666 60.4444 38.6666H59.4444V39.6666V53.8888C59.4444 54.5666 59.1752 55.2166 58.6959 55.6959C58.2167 56.1751 57.5667 56.4444 56.8889 56.4444H49.7778C49.1 56.4444 48.45 56.1751 47.9707 55.6959C47.4915 55.2166 47.2222 54.5666 47.2222 53.8888V43.6111L52.5043 38.6237L52.5043 38.6238L52.5105 38.6178C53.0866 38.0645 53.545 37.4004 53.8581 36.6655C54.1713 35.9305 54.3327 35.1399 54.3327 34.3411C54.3327 33.5422 54.1713 32.7516 53.8581 32.0167C53.545 31.2818 53.0866 30.6177 52.5105 30.0643ZM40.6744 26.5327L40.6781 26.5362L48.6758 34.0836C48.7412 34.1535 48.7777 34.2457 48.7777 34.3416C48.7777 34.4376 48.7411 34.5298 48.6758 34.5997L40.678 42.1483L40.6744 42.1517C40.6271 42.1968 40.5676 42.227 40.5032 42.2386C40.4389 42.2501 40.3725 42.2424 40.3125 42.2166L39.9167 43.1349L40.3125 42.2166C40.2525 42.1907 40.2014 42.1477 40.1655 42.093C40.1297 42.0383 40.1108 41.9743 40.1111 41.9089V41.9044V37.8889V36.8889H39.1111H24.8889H23.8889V37.8889L23.8889 41.9044L23.8889 41.9089C23.8892 41.9743 23.8703 42.0383 23.8345 42.093C23.7986 42.1477 23.7475 42.1907 23.6875 42.2166C23.6275 42.2424 23.5611 42.2501 23.4968 42.2386C23.4324 42.227 23.3729 42.1968 23.3256 42.1517L23.3219 42.1483L15.3242 34.5997C15.2589 34.5298 15.2223 34.4376 15.2223 34.3416C15.2223 34.2457 15.2589 34.1535 15.3242 34.0836L23.322 26.535L23.3256 26.5316C23.3729 26.4865 23.4324 26.4563 23.4967 26.4447C23.561 26.4332 23.6273 26.4408 23.6874 26.4667L24.0828 25.5482L23.6874 26.4667C23.7474 26.4925 23.7985 26.5354 23.8343 26.5901C23.8702 26.6447 23.8891 26.7087 23.8889 26.7741V26.7778V30.7778V31.7778H24.8889H39.1111H40.1111V30.7778L40.1111 26.7778L40.1111 26.7749C40.1109 26.7096 40.1299 26.6456 40.1658 26.591C40.2016 26.5364 40.2528 26.4935 40.3128 26.4677C40.3728 26.4419 40.4391 26.4343 40.5034 26.4459C40.5677 26.4574 40.6272 26.4876 40.6744 26.5327ZM39.1111 38.8889V41.9044V38.8889ZM56.7285 12.7479C55.7235 13.4194 54.542 13.7778 53.3333 13.7778C51.7126 13.7778 50.1582 13.1339 49.0121 11.9879C47.8661 10.8418 47.2222 9.28744 47.2222 7.66668C47.2222 6.45802 47.5806 5.2765 48.2521 4.27153C48.9236 3.26657 49.8781 2.48329 50.9947 2.02076C52.1114 1.55822 53.3401 1.4372 54.5256 1.673C55.711 1.9088 56.7999 2.49082 57.6545 3.34548C58.5092 4.20013 59.0912 5.28902 59.327 6.47446C59.5628 7.6599 59.4418 8.88864 58.9793 10.0053C58.5167 11.122 57.7335 12.0764 56.7285 12.7479Z" stroke="#77D499" stroke-width="2"/>
</svg>
